Coordinates
version=1
nRows=49
nColumns=12
inDegrees=yes

Units are S.I. units (second, meters, Newtons, ...)
Angles are in degrees

endheader
time	SC_y	SC_z	SC_x	AC_y	AC_z	AC_x	GH_y	GH_z	GH_yy	EL_x	PS_y
       0.0              -50.57          22.46          54.35          37.32         -11.34         -8.213          123.6          27.59         -137.8          9.575          136.5
   0.04548              -50.57          22.46          54.34          37.32         -11.34         -8.212          123.5          27.59         -137.8          9.586          136.5
   0.09096              -50.57          22.46          54.34          37.32         -11.34          -8.21          123.5           27.6         -137.8          9.598          136.5
    0.1364              -50.57          22.46          54.34          37.32         -11.34         -8.208          123.4           27.6         -137.8          9.611          136.5
    0.1819              -50.57          22.46          54.34          37.32         -11.34         -8.207          123.4          27.61         -137.8          9.624          136.4
    0.2274              -50.57          22.46          54.34          37.33         -11.34         -8.205          123.4          27.61         -137.8          9.638          136.4
    0.2729              -50.57          22.46          54.34          37.33         -11.34         -8.203          123.3          27.62         -137.8          9.654          136.4
    0.3184              -50.57          22.46          54.33          37.33         -11.34         -8.201          123.3          27.62         -137.8           9.67          136.4
    0.3639              -50.57          22.46          54.33          37.33         -11.34         -8.198          123.2          27.63         -137.8          9.688          136.3
    0.4093              -50.57          22.46          54.33          37.33         -11.33         -8.196          123.1          27.64         -137.8          9.707          136.3
    0.4548              -50.57          22.47          54.33          37.34         -11.33         -8.193          123.1          27.65         -137.7          9.727          136.3
    0.5003              -50.57          22.47          54.32          37.34         -11.33          -8.19          123.0          27.66         -137.7          9.748          136.2
    0.5458              -50.57          22.47          54.32          37.34         -11.33         -8.187          122.9          27.66         -137.7          9.772          136.2
    0.5913              -50.57          22.47          54.32          37.34         -11.33         -8.184          122.8          27.67         -137.7          9.797          136.2
    0.6367              -50.57          22.47          54.32          37.35         -11.33          -8.18          122.7          27.69         -137.7          9.825          136.1
    0.6822              -50.57          22.47          54.31          37.35         -11.32         -8.176          122.7           27.7         -137.7          9.854          136.1
    0.7277              -50.57          22.47          54.31          37.35         -11.32         -8.172          122.5          27.71         -137.6          9.887          136.0
    0.7732              -50.57          22.48           54.3          37.36         -11.32         -8.167          122.4          27.72         -137.6          9.922          136.0
    0.8187              -50.57          22.48           54.3          37.36         -11.32         -8.162          122.3          27.74         -137.6           9.96          135.9
    0.8642              -50.57          22.48           54.3          37.37         -11.32         -8.157          122.2          27.76         -137.6           10.0          135.8
    0.9096              -50.57          22.48          54.29          37.37         -11.31         -8.151          122.0          27.77         -137.5          10.05          135.8
    0.9551              -50.57          22.49          54.28          37.38         -11.31         -8.144          121.9          27.79         -137.5           10.1          135.7
     1.001              -50.58          22.49          54.28          37.38         -11.31         -8.137          121.7          27.82         -137.5          10.16          135.6
     1.046              -50.58          22.49          54.27          37.39          -11.3         -8.128          121.5          27.84         -137.4          10.22          135.5
     1.092              -50.58           22.5          54.26           37.4          -11.3         -8.119          121.2          27.87         -137.4          10.29          135.4
     1.137              -50.58           22.5          54.25          37.41         -11.29         -8.109          121.0           27.9         -137.3          10.36          135.3
     1.183              -50.58           22.5          54.24          37.42         -11.29         -8.098          120.7          27.93         -137.3          10.45          135.2
     1.228              -50.58          22.51          54.23          37.43         -11.28         -8.085          120.4          27.97         -137.2          10.55          135.0
     1.273              -50.58          22.51          54.22          37.44         -11.28         -8.071          120.0          28.02         -137.1          10.66          134.8
     1.319              -50.58          22.52           54.2          37.46         -11.27         -8.054          119.6          28.07         -137.0          10.78          134.6
     1.364              -50.59          22.53          54.19          37.47         -11.26         -8.035          119.2          28.12         -136.9          10.92          134.4
      1.41              -50.59          22.54          54.17          37.49         -11.25         -8.014          118.6          28.19         -136.8          11.09          134.2
     1.455              -50.59          22.55          54.15          37.51         -11.24         -7.989          118.0          28.26         -136.7          11.28          133.9
     1.501              -50.59          22.56          54.12          37.54         -11.22          -7.96          117.3          28.35         -136.6           11.5          133.5
     1.546               -50.6          22.57          54.09          37.57         -11.21         -7.926          116.4          28.45         -136.4          11.75          133.1
     1.592               -50.6          22.59          54.05           37.6         -11.19         -7.887          115.5          28.57         -136.2          12.05          132.7
     1.637               -50.6          22.61          54.01          37.64         -11.17         -7.839          114.3          28.72         -136.0          12.41          132.1
     1.683              -50.61          22.63          53.96          37.69         -11.14         -7.783          112.9          28.89         -135.7          12.84          131.5
     1.728              -50.62          22.66           53.9          37.75         -11.11         -7.714          111.2          29.09         -135.3          13.37          130.7
     1.774              -50.63          22.69          53.83          37.82         -11.07          -7.63          109.1          29.35         -134.9           14.0          129.7
     1.819              -50.64          22.73          53.73          37.91         -11.02         -7.527          106.5          29.66         -134.4          14.79          128.5
     1.865              -50.65          22.78          53.62          38.03         -10.96         -7.398          103.3          30.05         -133.7          15.77          126.9
      1.91              -50.66          22.85          53.47          38.17         -10.88         -7.235          99.29          30.54         -132.9           17.0          125.0
     1.956              -50.68          22.93          53.29          38.35         -10.79         -7.029          94.17          31.16         -131.9          18.57          122.6
     2.001              -50.71          23.04          53.05          38.57         -10.66         -6.764           87.6          31.96         -130.5          20.58          119.5
     2.047              -50.74          23.18          52.75          38.87         -10.51         -6.425          79.18          32.99         -128.8          23.16          115.5
     2.092              -50.79          23.35          52.36          39.24          -10.3         -5.992          68.42           34.3         -126.6          26.45          110.5
     2.138              -50.84          23.57          51.88          39.72         -10.05         -5.447           54.9          35.94         -123.9          30.59          104.1
     2.183               -50.9          23.83          51.28          40.29         -9.737         -4.783          38.41          37.95         -120.5          35.63          96.28
